<svg class="diagram-root" style="background: #f5f6f6" xmlns="http://www.w3.org/2000/svg" xmlns:xlink="http://www.w3.org/1999/xlink"><style>.diagram-root { font-family: "Helvetica Neue", sans-serif; font-size: 12px; } .t { overflow: visible; } .t-bg { y: 40; fill: #fff;   } .th { fill: #005aa0;   } .tht { fill: #fff; font-size: 14px;  } .tf { fill: #323c46; overflow: visible; } .tf.pk { fill: #005aa0; font-weight: bold; } .tf.fk { font-weight: bold; } .ty { fill: #adb1b5; font-weight: normal; text-anchor: end; } .r { fill: transparent; stroke: #c3c3c3; stroke-width: 1; } .l { stroke: 1; } .i { fill: #c2c7ce; stroke: #c2c7ce; } .i.ix { fill: #afb3b6; stroke: #000; } .fa { fill: transparent; overflow: visible; } .fa .bg.hover { fill: #f7f7f7; } .c { cy: 12; r: 4; stroke: #d2d2dc; fill: #d2d2dc; } .hr { fill: transparent; stroke: #323c46; stroke-opacity: 0.035; stroke-width: 13; } .dc { stroke: #fa5a3c; fill: #fa5a3c; } .x { stroke: white; stroke-width: 1; } .hl .th { fill: #1b9bff; } .hl .tht {  } .fhl .bg { fill: #e7f4ff; } .fhls .bg {  } .r.hl { stroke: #1b9bff; } .dim { opacity: 0.25; }</style><g class="drawing-wrapper" transform="translate(-99, -17) scale(1,1)"><g class="rs"><path d="M 392.5 108.25 m -1, 0 a 1,1 0 1,0 2,0 a 1,1 0 1,0 -2,0 M 392.5 108.25 m -0.5, 0 a 0.5,0.5 0 1,0 1,0 a 0.5,0.5 0 1,0 -1,0  M392.5 108.25 L392.5 108.25 380.5 108.25 M 392.5 114.25 m -1, 0 a 1,1 0 1,0 2,0 a 1,1 0 1,0 -2,0 M 392.5 114.25 m -0.5, 0 a 0.5,0.5 0 1,0 1,0 a 0.5,0.5 0 1,0 -1,0  M392.5 114.25 L392.5 114.25 385.5 108.25 392.5 102.25 M 392.5 102.25 m -1, 0 a 1,1 0 1,0 2,0 a 1,1 0 1,0 -2,0 M 392.5 102.25 m -0.5, 0 a 0.5,0.5 0 1,0 1,0 a 0.5,0.5 0 1,0 -1,0  M380.5 108.25 Q 359.08 108.25, 337.66 106.13 T 294.82 104 M 282.82 104 m -1, 0 a 1,1 0 1,0 2,0 a 1,1 0 1,0 -2,0 M 282.82 104 m -0.5, 0 a 0.5,0.5 0 1,0 1,0 a 0.5,0.5 0 1,0 -1,0  M282.82 104 L282.82 104 294.82 104 M288.82 110 L288.82 110 288.82 98" id="h2946806772" class="r"></path><path d="M 549.87 133.25 m -1, 0 a 1,1 0 1,0 2,0 a 1,1 0 1,0 -2,0 M 549.87 133.25 m -0.5, 0 a 0.5,0.5 0 1,0 1,0 a 0.5,0.5 0 1,0 -1,0  M549.87 133.25 L549.87 133.25 561.87 133.25 M 549.87 139.25 m -1, 0 a 1,1 0 1,0 2,0 a 1,1 0 1,0 -2,0 M 549.87 139.25 m -0.5, 0 a 0.5,0.5 0 1,0 1,0 a 0.5,0.5 0 1,0 -1,0  M549.87 139.25 L549.87 139.25 556.87 133.25 549.87 127.25 M 549.87 127.25 m -1, 0 a 1,1 0 1,0 2,0 a 1,1 0 1,0 -2,0 M 549.87 127.25 m -0.5, 0 a 0.5,0.5 0 1,0 1,0 a 0.5,0.5 0 1,0 -1,0  M561.87 133.25 Q 578.71 133.25, 595.56 126.38 T 629.25 119.5 M 641.25 119.5 m -1, 0 a 1,1 0 1,0 2,0 a 1,1 0 1,0 -2,0 M 641.25 119.5 m -0.5, 0 a 0.5,0.5 0 1,0 1,0 a 0.5,0.5 0 1,0 -1,0  M641.25 119.5 L641.25 119.5 629.25 119.5 M635.25 125.5 L635.25 125.5 635.25 113.5" id="h2031612665" class="r"></path><path d="M 420.79 367 m -1, 0 a 1,1 0 1,0 2,0 a 1,1 0 1,0 -2,0 M 420.79 367 m -0.5, 0 a 0.5,0.5 0 1,0 1,0 a 0.5,0.5 0 1,0 -1,0  M420.79 367 L420.79 367 432.79 367 M 420.79 373 m -1, 0 a 1,1 0 1,0 2,0 a 1,1 0 1,0 -2,0 M 420.79 373 m -0.5, 0 a 0.5,0.5 0 1,0 1,0 a 0.5,0.5 0 1,0 -1,0  M420.79 373 L420.79 373 427.79 367 420.79 361 M 420.79 361 m -1, 0 a 1,1 0 1,0 2,0 a 1,1 0 1,0 -2,0 M 420.79 361 m -0.5, 0 a 0.5,0.5 0 1,0 1,0 a 0.5,0.5 0 1,0 -1,0  M432.79 367 Q 469.85 367, 506.9 357 T 581 347 M 593 347 m -1, 0 a 1,1 0 1,0 2,0 a 1,1 0 1,0 -2,0 M 593 347 m -0.5, 0 a 0.5,0.5 0 1,0 1,0 a 0.5,0.5 0 1,0 -1,0  M593 347 L593 347 581 347 M587 353 L587 353 587 341" id="h44258285" class="r"></path><path d="M 253 392 m -1, 0 a 1,1 0 1,0 2,0 a 1,1 0 1,0 -2,0 M 253 392 m -0.5, 0 a 0.5,0.5 0 1,0 1,0 a 0.5,0.5 0 1,0 -1,0  M253 392 L253 392 241 392 M 253 398 m -1, 0 a 1,1 0 1,0 2,0 a 1,1 0 1,0 -2,0 M 253 398 m -0.5, 0 a 0.5,0.5 0 1,0 1,0 a 0.5,0.5 0 1,0 -1,0  M253 398 L253 398 246 392 253 386 M 253 386 m -1, 0 a 1,1 0 1,0 2,0 a 1,1 0 1,0 -2,0 M 253 386 m -0.5, 0 a 0.5,0.5 0 1,0 1,0 a 0.5,0.5 0 1,0 -1,0  M241 392 C -20.200000000000017 392, 59 104, 109 104 M 121 104 m -1, 0 a 1,1 0 1,0 2,0 a 1,1 0 1,0 -2,0 M 121 104 m -0.5, 0 a 0.5,0.5 0 1,0 1,0 a 0.5,0.5 0 1,0 -1,0  M121 104 L121 104 109 104 M115 110 L115 110 115 98" id="h4169943543" class="r"></path></g><g class="hrs"></g><g class="ts"><svg width="201.16" height="250" x="593" y="290" id="h2948373614" class="t"><rect height="40" width="201.16" class="th"></rect><text x="13" y="25" class="tht">users</text><rect height="210" width="201.16" class="t-bg"></rect><text x="13" y="61" class="tf pk">id<tspan x="188.16" class="ty">SERIAL</tspan></text><path d="M7,14A2,2 0 0,1 5,12A2,2 0 0,1 7,10A2,2 0 0,1 9,12A2,2 0 0,1 7,14M12.65,10C11.83,7.67 9.61,6 7, 6A6, 6 0 0, 0 1, 12A6, 6 0 0, 0 7, 18C9.61, 18 11.83, 16.33 12.65, 14H17V18H21V14H23V10H12.65Z" class="i pk" transform="translate(125.474453125, 48) scale(0.65)"></path><text x="13" y="86" class="tf">username<tspan x="188.16" class="ty">VARCHAR(128)</tspan></text><path d="M22,18V22H18V19H15V16H12L9.74,13.74C9.19,13.91 8.61,14 8,14A6,6 0 0,1 2,8A6,6 0 0,1 8,2A6,6 0 0,1 14,8C14,8.61 13.91, 9.19 13.74, 9.74L22, 18M7, 5A2, 2 0 0, 0 5, 7A2, 2 0 0, 0 7, 9A2, 2 0 0, 0 9, 7A2, 2 0 0, 0 7, 5Z" class="i uq" transform="translate(86.361171875, 75.5) scale(0.5)"></path><text x="13" y="111" class="tf">password<tspan x="188.16" class="ty">TEXT</tspan></text><text x="13" y="136" class="tf">first_name<tspan x="188.16" class="ty">VARCHAR(128)</tspan></text><text x="13" y="161" class="tf">last_name<tspan x="188.16" class="ty">VARCHAR(128)</tspan></text><text x="13" y="186" class="tf">email<tspan x="188.16" class="ty">VARCHAR(128)</tspan></text><text x="13" y="211" class="tf">phone<tspan x="188.16" class="ty">VARCHAR(64)</tspan></text><text x="13" y="236" class="tf">isAdmin<tspan x="188.16" class="ty">BOOLEAN</tspan></text></svg><svg width="161.82" height="175" x="121" y="47" id="h304627038" class="t"><rect height="40" width="161.82" class="th"></rect><text x="13" y="25" class="tht">instruments</text><rect height="135" width="161.82" class="t-bg"></rect><text x="13" y="61" class="tf pk">id<tspan x="148.82" class="ty">SERIAL</tspan></text><path d="M7,14A2,2 0 0,1 5,12A2,2 0 0,1 7,10A2,2 0 0,1 9,12A2,2 0 0,1 7,14M12.65,10C11.83,7.67 9.61,6 7, 6A6, 6 0 0, 0 1, 12A6, 6 0 0, 0 7, 18C9.61, 18 11.83, 16.33 12.65, 14H17V18H21V14H23V10H12.65Z" class="i pk" transform="translate(86.134453125, 48) scale(0.65)"></path><text x="13" y="86" class="tf">name<tspan x="148.82" class="ty">VARCHAR(128)</tspan></text><text x="13" y="111" class="tf">quantity<tspan x="148.82" class="ty">INT</tspan></text><text x="13" y="136" class="tf">description<tspan x="148.82" class="ty">TEXT</tspan></text><text x="13" y="161" class="tf">image_url<tspan x="148.82" class="ty">TEXT</tspan></text></svg><svg width="193.82" height="100" x="641.25" y="62.5" id="h2794354149" class="t"><rect height="40" width="193.82" class="th"></rect><text x="13" y="25" class="tht">category</text><rect height="60" width="193.82" class="t-bg"></rect><text x="13" y="61" class="tf pk">id<tspan x="180.82" class="ty">SERIAL</tspan></text><path d="M7,14A2,2 0 0,1 5,12A2,2 0 0,1 7,10A2,2 0 0,1 9,12A2,2 0 0,1 7,14M12.65,10C11.83,7.67 9.61,6 7, 6A6, 6 0 0, 0 1, 12A6, 6 0 0, 0 7, 18C9.61, 18 11.83, 16.33 12.65, 14H17V18H21V14H23V10H12.65Z" class="i pk" transform="translate(118.134453125, 48) scale(0.65)"></path><text x="13" y="86" class="tf">category<tspan x="180.82" class="ty">VARCHAR(128)</tspan></text><path d="M22,18V22H18V19H15V16H12L9.74,13.74C9.19,13.91 8.61,14 8,14A6,6 0 0,1 2,8A6,6 0 0,1 8,2A6,6 0 0,1 14,8C14,8.61 13.91, 9.19 13.74, 9.74L22, 18M7, 5A2, 2 0 0, 0 5, 7A2, 2 0 0, 0 7, 9A2, 2 0 0, 0 9, 7A2, 2 0 0, 0 7, 5Z" class="i uq" transform="translate(79.021171875, 75.5) scale(0.5)"></path></svg><svg width="157.37" height="100" x="392.5" y="51.25" id="h3769270544" class="t"><rect height="40" width="157.37" class="th"></rect><text x="13" y="25" class="tht">instrument_category</text><rect height="60" width="157.37" class="t-bg"></rect><text x="13" y="61" class="tf pk">instrument_id<tspan x="144.37" class="ty">INT</tspan></text><path d="M7,14A2,2 0 0,1 5,12A2,2 0 0,1 7,10A2,2 0 0,1 9,12A2,2 0 0,1 7,14M12.65,10C11.83,7.67 9.61,6 7, 6A6, 6 0 0, 0 1, 12A6, 6 0 0, 0 7, 18C9.61, 18 11.83, 16.33 12.65, 14H17V18H21V14H23V10H12.65Z" class="i pk" transform="translate(105.039921875, 48) scale(0.65)"></path><text x="13" y="86" class="tf pk">category_id<tspan x="144.37" class="ty">INT</tspan></text><path d="M7,14A2,2 0 0,1 5,12A2,2 0 0,1 7,10A2,2 0 0,1 9,12A2,2 0 0,1 7,14M12.65,10C11.83,7.67 9.61,6 7, 6A6, 6 0 0, 0 1, 12A6, 6 0 0, 0 7, 18C9.61, 18 11.83, 16.33 12.65, 14H17V18H21V14H23V10H12.65Z" class="i pk" transform="translate(105.039921875, 73) scale(0.65)"></path></svg><svg width="167.79" height="225" x="253" y="285" id="h565147490" class="t"><rect height="40" width="167.79" class="th"></rect><text x="13" y="25" class="tht">reservations</text><rect height="185" width="167.79" class="t-bg"></rect><text x="13" y="61" class="tf pk">id<tspan x="154.79" class="ty">SERIAL</tspan></text><path d="M7,14A2,2 0 0,1 5,12A2,2 0 0,1 7,10A2,2 0 0,1 9,12A2,2 0 0,1 7,14M12.65,10C11.83,7.67 9.61,6 7, 6A6, 6 0 0, 0 1, 12A6, 6 0 0, 0 7, 18C9.61, 18 11.83, 16.33 12.65, 14H17V18H21V14H23V10H12.65Z" class="i pk" transform="translate(92.10445312499999, 48) scale(0.65)"></path><text x="13" y="86" class="tf fk">user_id<tspan x="154.79" class="ty">INT</tspan></text><text x="13" y="111" class="tf fk">instrument_id<tspan x="154.79" class="ty">INT</tspan></text><text x="13" y="136" class="tf">quantity<tspan x="154.79" class="ty">INT</tspan></text><text x="13" y="161" class="tf">start_time<tspan x="154.79" class="ty">TIMESTAMP</tspan></text><text x="13" y="186" class="tf">end_time<tspan x="154.79" class="ty">TIMESTAMP</tspan></text><text x="13" y="211" class="tf">notes<tspan x="154.79" class="ty">TEXT?</tspan></text></svg></g></g><text class="qdbd-link" x="10" y="20">www.quickdatabasediagrams.com</text></svg>